<svg width="256" height="256" viewBox="0 0 256 256" fill="none" xmlns="http://www.w3.org/2000/svg">
<path fill-rule="evenodd" clip-rule="evenodd" d="M238.18 30.8025C238.18 43.9482 227.629 54.6049 214.612 54.6049C201.596 54.6049 191.044 43.9482 191.044 30.8025C191.044 17.6567 201.596 7 214.612 7C227.629 7 238.18 17.6567 238.18 30.8025ZM49 127.773C49 84.0171 84.1233 48.5445 127.448 48.5445C170.78 48.5445 205.895 84.0171 205.895 127.773C205.895 171.528 170.772 207 127.448 207C84.1233 207 49 171.528 49 127.773ZM86.0592 127.773C86.0592 150.855 104.593 169.572 127.448 169.572C150.303 169.572 168.837 150.855 168.837 127.773C168.837 104.689 150.303 85.9722 127.448 85.9722C104.593 85.9722 86.0592 104.689 86.0592 127.773Z" fill="#00CBFF"/>
</svg>
