<?xml version="1.0" encoding="utf-8"?>
<!-- Generator: Adobe Illustrator 22.0.1, SVG Export Plug-In . SVG Version: 6.00 Build 0)  -->
<svg version="1.1" id="Layer_1" xmlns="http://www.w3.org/2000/svg" xmlns:xlink="http://www.w3.org/1999/xlink" x="0px" y="0px"
	 width="551px" height="91.75px" viewBox="0 0 551 91.75" style="enable-background:new 0 0 551 91.75;" xml:space="preserve">
<g>
	<g id="XMLID_1060_">
		<g>
			<g id="XMLID_226_">
				<path id="XMLID_255_" d="M52.288559,26.0528145c-3.1698837,0-6.6683273,0-8.7450752,1.2335224
					c1.748188,2.2624435,3.0603638,5.3492031,3.0603638,9.4629154c0,10.0786972-7.2159271,17.2791672-21.4287357,17.2791672
					c-5.9016838,0-10.6027813,0.2065735-10.6027813,3.2913666c0,8.640564,37.3897324-3.0847931,37.3897324,18.3080826
					c0,7.6116486-8.1995392,15.8390732-26.3488712,15.8390732C10.3072472,91.4669418,0.25,87.1486282,0.25,78.7146301
					c0-6.6869965,5.3561506-9.8740921,10.2762871-9.8740921v-0.2065659
					c-2.6243482-1.5423965-8.4185791-2.880188-8.4185791-8.6405678c0-5.1426353,6.3418312-9.0497742,8.8566599-9.769825
					c-4.701097-3.600235-8.4185791-7.7139473-8.4185791-14.1943741c0-9.3606129,7.6519389-18.6169586,22.4123497-18.6169586
					c4.8106174,0,10.495327,1.8512688,13.9937706,4.7314587c2.6222839-3.2913647,6.8873634-4.9380302,13.3366508-4.7314587
					V26.0528145z M12.7125559,77.0679626c0,4.1137161,3.7174826,5.9649887,15.0869036,5.9649887
					c8.7471409,0,11.6979809-4.1137161,11.6979809-5.9649887c0-2.4690094-4.0439758-6.1715469-17.1636505-6.1715469
					C14.8988237,70.8964157,12.7125559,74.8055191,12.7125559,77.0679626z M24.8486176,26.875164
					c-5.7942314,0-9.8402739,3.9071407-9.8402739,8.8451691s4.0460424,8.8451729,9.8402739,8.8451729
					c5.1371117,0,9.292675-3.9071426,9.292675-8.8451729S29.9857292,26.875164,24.8486176,26.875164z"/>
				<path id="XMLID_253_" d="M182.9589233,80.5659027c2.0767517,0.411171,3.7174835,0.411171,5.6847229,0.411171
					c4.7010956,0,7.3254395-1.2354889,8.9661713-4.2179794c1.3101044-2.5713196,2.186264-4.1137161,2.186264-6.2738571
					c0-1.9535675-1.0931244-4.216011-1.7502441-6.376152l-15.5569916-46.7141571h13.6652069l9.7627563,33.959877h0.2190399
					l10.0627899-33.959877h13.5556793l-18.2602539,54.6327057c-6.0132599,15.3255997-10.8238831,19.4393082-21.9763336,19.4393082
					c-3.2794037,0-4.9180603-0.2045975-6.5588074-0.411171V80.5659027z"/>
				<path id="XMLID_250_" d="M239.0517273,9.2221384V0.375h6.3335571v8.8471384H239.0517273z M245.3852844,72.7922974h-6.3335571
					V17.3949261h6.3335571V72.7922974z"/>
				<path id="XMLID_248_" d="M260.0630798,72.8107147V17.3949261h6.3335876v8.9884014
					c5.5958557-5.6305332,9.7142029-8.9474716,18.2671204-8.9474716c6.1227722,0,11.7186279,3.7202435,13.3015137,9.5494785
					c4.9635315-5.5282326,10.2411499-9.5494785,18.159668-9.5494785c9.6088257,0,14.4649048,5.0265579,14.4649048,14.1746998
					v41.2001572h-6.3335571V31.0065823c0-5.8292351-3.3786011-8.7448368-9.5034485-8.7448368
					c-4.8560791,0-12.8799744,4.9242573-16.2585754,9.9508171v40.5981522h-6.3356323V31.0065823
					c0-5.8292351-3.3786011-8.7448368-9.5013733-8.7448368c-4.8581543,0-12.8820496,4.9242573-16.2606201,9.9508171v40.5981522
					H260.0630798z"/>
				<path id="XMLID_245_" d="M378.0162048,72.8107147l-0.8431091-7.3566055
					c-6.5464172,4.9262314-11.5099487,7.3381882-19.9553833,7.3381882c-8.552887,0-15.0993042-5.0265579-15.0993042-13.6710587
					c0-14.2730713,12.2476501-17.9631691,35.1600647-22.7870941v-3.6179428c0-6.9368477-3.1678162-10.4544563-12.5658569-10.4544563
					c-6.544342,0-11.9294434,3.4172745-15.9424133,9.4491444l-4.2216797-2.413929
					c4.7506714-8.441864,11.5078735-11.861105,20.3769226-11.861105c12.4584351,0,18.3704224,4.8258896,18.3704224,16.385994
					v27.3401527c0,2.6146011,0.2107849,8.1311035,0.8451843,11.6487122H378.0162048z M376.9602661,41.1580696
					c-25.1276245,5.2272263-28.5062256,11.2289543-28.5062256,17.8628349c0,5.7288971,4.1183777,8.9455032,9.8196106,8.9455032
					c5.9120178,0,13.1961365-3.3169403,18.686615-8.6445007V41.1580696z"/>
				<path id="XMLID_241_" d="M442.9636536,21.8584404c-2.8495789,0-6.5464172,0.3029709-8.7636719,2.413929
					c2.4280396,2.8132992,3.9075928,5.9295692,3.9075928,10.956131c0,12.8664169-9.6088257,18.2943153-21.2221069,18.2943153
					c-3.4839783,0-6.1248474-0.7043114-8.8690491-1.6092873c-3.4839783,1.2079468-5.066864,3.1162682-5.066864,5.0265579
					c0,3.0159378,2.1098328,4.5229225,16.9983521,4.5229225c16.4693298,0,23.3319092,5.0265617,23.3319092,13.5707283
					c0,7.6391907-6.1228027,14.1727295-25.0222473,14.1727295s-23.9662781-6.1302338-23.9662781-12.3627777
					c0-4.5229187,1.9010925-8.3434982,9.6067505-11.0584335v-0.2006683
					c-4.0108948-0.8046417-7.2841187-2.4119606-7.2841187-6.8345451s4.2237549-8.0424957,8.2346802-8.8451691
					c-4.9614563-3.2166061-7.9185181-8.2431641-7.9185181-13.6710625c0-11.4597683,8.4475098-18.7979546,21.7510986-18.7979546
					c5.2776489,0,9.2906189,1.408617,12.7745972,3.6199093c3.1678162-3.0159359,7.1787415-4.6252213,11.5078735-4.6252213
					V21.8584404z M400.6269226,75.7380447c0,5.1249237,5.2776184,8.6445007,16.6801147,8.6445007
					c13.7251282,0,19.6392212-3.519577,19.6392212-8.9474716c0-4.3222504-3.589386-8.5441666-20.060791-8.5441666
					C404.427063,66.8909073,400.6269226,71.2131577,400.6269226,75.7380447z M417.5177917,48.6969223
					c8.8690796,0,14.2541504-4.0192795,14.2541504-13.0670853c0-9.1461754-5.3850708-13.3680916-14.2541504-13.3680916
					c-8.8669739,0-14.2520752,5.2272282-14.2520752,13.3680916
					C403.2657166,44.6776428,409.8121338,48.6969223,417.5177917,48.6969223z"/>
				<path id="XMLID_238_" d="M450.8558044,44.777977c0,11.8611069,5.1742859,23.2068481,17.6327209,23.2068481
					c7.0733337,0,10.557312-2.3116302,16.0477905-10.5528221l5.1722412,2.6126289
					c-5.9120178,9.2484741-11.2971191,12.7660828-21.7490234,12.7660828c-14.3595276,0-23.4393616-9.8387566-23.4393616-28.2334061
					c0-16.1833572,8.6582642-27.1414528,22.5941772-27.1414528c14.8885193,0,21.9618835,11.1587639,21.9618835,27.3421211
					H450.8558044z M482.7406006,39.9520874c-1.2667236-10.7554607-6.2281799-17.5900078-15.8370056-17.6903419
					c-11.1917114-0.1003342-15.9424133,10.7554588-16.0477905,17.6903419H482.7406006z"/>
				<path id="XMLID_236_" d="M500.8093262,59.1396561c5.1743164,7.0371857,9.8196106,8.8451691,17.0004272,8.8451691
					c6.9679565,0,12.2455444-5.416172,12.2455444-11.0447388c0-15.1780434-32.3063354-6.6338768-32.3063354-25.2291965
					c0-9.8524494,8.129303-14.275034,17.4199219-14.275034c9.1851807,0,14.9938965,3.419241,18.8994141,9.4491444
					l-4.8560791,3.2166042c-3.6968384-4.8239231-7.7077026-7.839859-14.2541504-7.839859
					c-6.1227722,0-10.8755188,2.8132992-10.8755188,9.1461735c0,12.7660847,32.3083801,5.2272282,32.3083801,25.5321674
					c0,9.3488083-9.079834,15.8706284-19.0048218,15.8706284c-8.4454346,0-16.04776-3.2166061-21.2220764-10.5547905
					L500.8093262,59.1396561z"/>
				<path id="XMLID_234_" d="M114.6758499,17.3949261V0.748858h13.5577469v16.6460686h11.1503906v10.2819271h-11.1503906v31.2707024
					c0,2.8772888,1.5291595,3.7013359,4.9180756,3.7013359c2.0788116,0,4.2650909-0.6175423,6.2323151-1.0285835v10.4884338
					c-3.7174835,0.4110413-6.9968872,0.8220825-10.7143707,0.8220825c-10.0572433,0-13.9937668-4.7299271-13.9937668-12.3391037
					V27.6768532h-7.8709793V17.3949261H114.6758499z"/>
				<path id="XMLID_232_" d="M152.0289459,17.3949261V0.748858h13.5556946v16.6460686h11.1524506v10.2819271h-11.1524506v31.2707024
					c0,2.8772888,1.5312042,3.7013359,4.9201355,3.7013359c2.0767517,0,4.2650757-0.6175423,6.2323151-1.0285835v10.4884338
					c-3.7174835,0.4110413-6.9968872,0.8220825-10.7143707,0.8220825c-10.057251,0-13.9937744-4.7299271-13.9937744-12.3391037
					V27.6768532h-7.8709717V17.3949261H152.0289459z"/>
				<path id="XMLID_227_" d="M550.6902466,8.3908634c0,4.1155558-3.354126,7.4876289-7.4852905,7.4876289
					c-4.1547852,0-7.4977417-3.3720732-7.4977417-7.4876289c0-4.1328216,3.3429565-7.5082808,7.4977417-7.5082808
					C547.3361206,0.8825827,550.6902466,4.2580419,550.6902466,8.3908634z M549.4846191,8.3908634
					c0.001709-3.6243019-2.6834717-6.4980125-6.2796631-6.4980125c-3.6049805,0-6.2972412,2.8737109-6.2972412,6.4980125
					c0,3.6033115,2.6922607,6.4773617,6.2972412,6.4773617C546.8011475,14.8682251,549.4863281,11.994175,549.4846191,8.3908634z
					 M541.6239014,12.8517513h-1.2110596V3.9343772h3.4093018c1.9989014,0,2.8883057,0.8677335,2.8883057,2.4684529
					c0,1.5722799-1.0333252,2.2619305-2.0506592,2.4792862l2.4776001,3.969635h-1.37323l-2.4274902-3.969635h-1.7127686V12.8517513z
					 M543.0180664,7.8752346c1.1721191,0,2.484375,0.0572166,2.484375-1.4937339
					c0-1.262835-1.0115967-1.4368558-1.9403076-1.4368558h-1.9382324v2.9305897H543.0180664z"/>
			</g>
			<path id="XMLID_223_" d="M68.4883499,47.265358c0.2190399,11.1076126,5.4656677,15.4278984,11.8074951,15.4278984
				c6.341835,0,9.2926788-2.6755867,12.6816025-6.3781242l9.840271,5.760376
				c-5.2486954,7.6116486-12.9006348,10.9030151-23.8340454,10.9030151c-14.7583466,0-24.0510178-10.8007126-24.0510178-27.7710075
				c0-16.9722595,9.2926712-27.7710018,24.7081375-27.7710018c14.8678665-0.1023026,23.1769257,11.725359,23.1769257,24.5819416
				v5.2469025H68.4883499z M90.353096,38.6247902c-0.2169724-7.405077-4.3725357-11.7253609-10.9313431-11.7253609
				c-6.5608673,0-10.7143631,4.3202839-10.933403,11.7253609H90.353096z"/>
		</g>
	</g>
</g>
</svg>
