<svg xmlns="http://www.w3.org/2000/svg" width="48" height="48" fill="none" viewBox="0 0 48 48"><defs><linearGradient id="ai_svg__b" x1="4.754" x2="70.615" y1="8.636" y2="59.748" gradientUnits="userSpaceOnUse"><stop stop-color="#955AE0"/><stop offset="1" stop-color="#4D67F0"/></linearGradient><clipPath id="ai_svg__a"><path fill="#fff" d="M0 0h48v48H0z"/></clipPath></defs><g clip-path="url(#ai_svg__a)"><path fill="url(#ai_svg__b)" d="M3.728 8.16c4.32-2.46 10.26-3.66 15.36-3.66 14.94 0 24.42 6.96 24.42 16.38 0 7.5-6.54 12.12-15.24 12.12-7.02 0-12.24-2.58-12.24-6 0-3.24 3.3-4.8 7.98-3l1.2-3.66c-7.26-2.34-13.26.96-13.26 6.66s7.08 9.78 16.56 9.78c11.28 0 19.5-6.24 19.5-15.9C48.008 8.82 36.608 0 19.088 0c-5.64 0-12 1.44-17.22 4.26zm40.56 31.68c-4.32 2.46-10.26 3.66-15.36 3.66-14.94 0-24.42-6.96-24.42-16.38 0-7.5 6.54-12.12 15.24-12.12 7.02 0 12.24 2.58 12.24 6 0 3.24-3.3 4.8-7.98 3l-1.2 3.66c7.26 2.34 13.26-.96 13.26-6.66s-7.08-9.78-16.56-9.78c-11.28 0-19.5 6.24-19.5 15.9 0 12.06 11.4 20.88 28.92 20.88 5.64 0 12-1.44 17.22-4.26z"/></g></svg>