<svg width="27" height="30" viewBox="0 0 27 30" fill="none" xmlns="http://www.w3.org/2000/svg">
<path d="M25.0591 24.4876C25.6166 24.3376 26.0191 25.0226 25.6141 25.4376C21.8391 29.3101 16.8066 30.3276 13.5116 29.9151C4.26914 28.7851 0.864136 21.4076 0.374136 18.1476C0.374136 18.1451 0.374136 18.1426 0.374136 18.1401C-0.428364 15.1951 0.124136 11.0851 1.42164 8.53513C5.52414 0.467629 13.0241 -0.0448703 14.9066 0.00262966C17.2166 0.16263 21.6916 0.53263 24.8916 5.89763C25.0441 6.15263 26.3116 8.53513 26.2441 11.0526C26.2741 12.2051 26.1241 13.3401 25.7916 14.4051C25.7016 14.6701 25.6091 14.9301 25.5141 15.1876C25.5141 15.1876 25.5141 15.1901 25.5141 15.1926C25.4041 15.4451 25.2841 15.6951 25.1666 15.9401C25.0541 16.1876 24.8966 16.4176 24.7616 16.6526C24.6891 16.7676 24.6241 16.8851 24.5441 16.9951L24.3016 17.3201C23.6566 18.1826 22.8791 18.9226 22.0141 19.4776C21.9041 19.5476 21.8091 19.6201 21.6891 19.6876L21.3341 19.8851C21.2141 19.9476 21.1016 20.0151 20.9791 20.0701L20.6091 20.2251C20.3666 20.3326 20.1141 20.4101 19.8616 20.4826C19.6141 20.5651 19.3566 20.6101 19.1016 20.6551C18.0841 20.8276 17.0641 20.7676 16.1416 20.5026C15.2166 20.2476 14.3891 19.7826 13.7241 19.1951C13.5416 19.0301 13.5116 18.9976 13.3541 18.8126C12.9841 18.3826 13.3916 17.7351 13.9391 17.8751C14.8416 18.1051 15.5741 17.9426 16.3266 17.7351C16.9116 17.5701 19.2041 16.3951 19.2041 13.7151C19.2041 12.1076 17.9841 9.96513 15.8841 9.51513C15.8841 9.51513 15.8816 9.51513 15.8791 9.51513C15.7891 9.50263 15.6991 9.48513 15.6116 9.46763H15.6066C15.2416 9.42513 14.8816 9.39013 14.5241 9.43263C12.4391 9.73013 11.1641 11.2801 10.9241 11.6151C9.93914 12.9376 9.43914 14.6576 9.58164 16.4051C9.65914 17.2726 9.87664 18.1476 10.2891 18.9776C10.2891 18.9776 10.2891 18.9826 10.2916 18.9826C10.4116 19.1776 10.5091 19.3851 10.6266 19.5976C10.6266 19.6001 10.6291 19.6026 10.6316 19.6051C10.7841 19.8176 10.9391 20.0326 11.0866 20.2576C11.1566 20.3776 11.2441 20.4751 11.3316 20.5776L11.5916 20.8876C11.6816 20.9876 11.7566 21.1076 11.8541 21.2026L12.1441 21.4901C14.8991 24.3701 19.7016 25.9176 25.0616 24.4826L25.0591 24.4876Z" fill="url(#paint0_linear_3738_464)"/>
<path d="M25.0591 24.4876C25.6166 24.3376 26.0191 25.0226 25.6141 25.4376C21.8391 29.3101 16.8066 30.3276 13.5116 29.9151C4.26914 28.7851 0.864136 21.4076 0.374136 18.1476C0.374136 18.1451 0.374136 18.1426 0.374136 18.1401C-0.428364 15.1951 0.124136 11.0851 1.42164 8.53513C5.52414 0.467629 13.0241 -0.0448703 14.9066 0.00262966C17.2166 0.16263 21.6916 0.53263 24.8916 5.89763C25.0441 6.15263 26.3116 8.53513 26.2441 11.0526C26.2741 12.2051 26.1241 13.3401 25.7916 14.4051C25.7016 14.6701 25.6091 14.9301 25.5141 15.1876C25.5141 15.1876 25.5141 15.1901 25.5141 15.1926C25.4041 15.4451 25.2841 15.6951 25.1666 15.9401C25.0541 16.1876 24.8966 16.4176 24.7616 16.6526C24.6891 16.7676 24.6241 16.8851 24.5441 16.9951L24.3016 17.3201C23.6566 18.1826 22.8791 18.9226 22.0141 19.4776C21.9041 19.5476 21.8091 19.6201 21.6891 19.6876L21.3341 19.8851C21.2141 19.9476 21.1016 20.0151 20.9791 20.0701L20.6091 20.2251C20.3666 20.3326 20.1141 20.4101 19.8616 20.4826C19.6141 20.5651 19.3566 20.6101 19.1016 20.6551C18.0841 20.8276 17.0641 20.7676 16.1416 20.5026C15.2166 20.2476 14.3891 19.7826 13.7241 19.1951C13.5416 19.0301 13.5116 18.9976 13.3541 18.8126C12.9841 18.3826 13.3916 17.7351 13.9391 17.8751C14.8416 18.1051 15.5741 17.9426 16.3266 17.7351C16.9116 17.5701 19.2041 16.3951 19.2041 13.7151C19.2041 12.1076 17.9841 9.96513 15.8841 9.51513C15.8841 9.51513 15.8816 9.51513 15.8791 9.51513C15.7891 9.50263 15.6991 9.48513 15.6116 9.46763H15.6066C15.2416 9.42513 14.8816 9.39013 14.5241 9.43263C12.4391 9.73013 11.1641 11.2801 10.9241 11.6151C9.93914 12.9376 9.43914 14.6576 9.58164 16.4051C9.65914 17.2726 9.87664 18.1476 10.2891 18.9776C10.2891 18.9776 10.2891 18.9826 10.2916 18.9826C10.4116 19.1776 10.5091 19.3851 10.6266 19.5976C10.6266 19.6001 10.6291 19.6026 10.6316 19.6051C10.7841 19.8176 10.9391 20.0326 11.0866 20.2576C11.1566 20.3776 11.2441 20.4751 11.3316 20.5776L11.5916 20.8876C11.6816 20.9876 11.7566 21.1076 11.8541 21.2026L12.1441 21.4901C14.8991 24.3701 19.7016 25.9176 25.0616 24.4826L25.0591 24.4876Z" fill="url(#paint1_radial_3738_464)"/>
<defs>
<linearGradient id="paint0_linear_3738_464" x1="25.999" y1="25.5001" x2="8" y2="4.5" gradientUnits="userSpaceOnUse">
<stop stop-color="#BFFEE1"/>
<stop offset="1" stop-color="#05CEFE"/>
</linearGradient>
<radialGradient id="paint1_radial_3738_464" cx="0" cy="0" r="1" gradientUnits="userSpaceOnUse" gradientTransform="translate(17 18.5) rotate(-41.6335) scale(12.0416 6.01201)">
<stop stop-color="#79FDB0"/>
<stop offset="1" stop-color="#58F5D7" stop-opacity="0"/>
</radialGradient>
</defs>
</svg>
