<svg xmlns="http://www.w3.org/2000/svg" width="17" height="17" fill="none"><path stroke="#000" stroke-miterlimit="10" stroke-width=".071" d="M10.955 11.357c-.57.602-1.367 1.917-1.799 3.045-.553 1.446-.807 2.207-1.174 2.207-.215 0-.522-.607-.722-1.12-.206-.528-.431-1.126-.647-1.597a13 13 0 0 0-.696-1.35 8 8 0 0 0-.85-1.139c-.448-.507-1.433-1.183-2.448-1.679C1.359 9.11.036 8.664.036 8.268c0-.425 1.547-.92 2.578-1.42 1.013-.49 1.968-1.148 2.443-1.66a9.2 9.2 0 0 0 1.55-2.323c.156-.333.437-1.033.701-1.654.268-.628.52-1.175.767-1.175.316 0 .682.945.862 1.389.238.587.52 1.301 1.07 2.294.557 1.003 1.242 1.718 1.956 2.233.644.463 1.79 1.043 3.152 1.632.663.287.922.516.922.716 0 .225-.312.398-.776.604-.63.279-1.532.63-2.22.977-.996.503-1.646 1.012-2.086 1.476Z"/><path fill="url(#a)" d="M15.116 7.583c-1.362-.589-2.508-1.168-3.152-1.631-.714-.515-1.399-1.23-1.956-2.234-.55-.992-.832-1.706-1.07-2.293-.178-.44-.54-1.373-.854-1.39V8.17l7.953.125c-.003-.199-.262-.427-.921-.712"/><path fill="url(#b)" d="M15.115 7.591c-1.361-.589-2.508-1.168-3.151-1.631-.715-.515-1.4-1.23-1.956-2.234-.55-.992-.833-1.706-1.07-2.293-.179-.44-.54-1.373-.854-1.39v8.135l7.953.125c-.004-.199-.263-.426-.922-.712"/><path fill="url(#c)" d="M15.115 7.591c-1.361-.589-2.508-1.168-3.151-1.631-.715-.515-1.4-1.23-1.956-2.234-.55-.992-.833-1.706-1.07-2.293-.179-.44-.54-1.373-.854-1.39v8.135l7.953.125c-.004-.199-.263-.426-.922-.712"/><path fill="url(#d)" d="M15.116 7.583c-1.362-.589-2.508-1.168-3.152-1.631-.714-.515-1.399-1.23-1.956-2.234-.55-.992-.832-1.706-1.07-2.293-.178-.44-.54-1.373-.854-1.39V8.17l7.953.125c-.003-.199-.262-.427-.921-.712"/><path fill="url(#e)" d="M15.116 7.583c-1.362-.589-2.508-1.168-3.152-1.631-.714-.515-1.399-1.23-1.956-2.234-.55-.992-.832-1.706-1.07-2.293-.178-.44-.54-1.373-.854-1.39V8.17l7.953.125c-.003-.199-.262-.427-.921-.712"/><path fill="url(#f)" d="M8.014 16.607c.35-.041.605-.8 1.144-2.205.432-1.128 1.229-2.444 1.798-3.045.44-.465 1.09-.973 2.087-1.476.687-.347 1.59-.698 2.219-.977.464-.206.776-.38.776-.604v-.004L8.014 8.17z"/><path fill="url(#g)" d="M8.014 16.607c.35-.041.605-.8 1.144-2.205.432-1.128 1.229-2.444 1.798-3.045.44-.465 1.09-.973 2.087-1.476.687-.347 1.59-.698 2.219-.977.464-.206.776-.38.776-.604v-.004L8.014 8.17z"/><path fill="url(#h)" d="M8.014 16.607c.35-.041.605-.8 1.144-2.205.432-1.128 1.229-2.444 1.798-3.045.44-.465 1.09-.973 2.087-1.476.687-.347 1.59-.698 2.219-.977.464-.206.776-.38.776-.604v-.004L8.014 8.17z"/><path fill="url(#i)" d="M8.084.036h-.008c-.248 0-.5.547-.767 1.175-.265.62-.546 1.32-.702 1.654a9.2 9.2 0 0 1-1.55 2.324c-.475.51-1.43 1.168-2.443 1.66-1.03.499-2.578.994-2.578 1.419v.01l8.048.023z"/><path fill="url(#j)" d="M8.084.036h-.008c-.248 0-.5.547-.767 1.175-.265.62-.546 1.32-.702 1.654a9.2 9.2 0 0 1-1.55 2.324c-.475.51-1.43 1.168-2.443 1.66-1.03.499-2.578.994-2.578 1.419v.01l8.048.023z"/><path fill="url(#k)" d="M8.084.036h-.008c-.248 0-.5.547-.767 1.175-.265.62-.546 1.32-.702 1.654a9.2 9.2 0 0 1-1.55 2.324c-.475.51-1.43 1.168-2.443 1.66-1.03.499-2.578.994-2.578 1.419v.01l8.048.023z"/><path fill="url(#l)" d="M8.012 8.3.036 8.279c.024.394 1.334.837 2.582 1.446 1.015.495 2 1.172 2.448 1.679a8 8 0 0 1 .85 1.14c.236.385.475.867.696 1.349.216.47.441 1.068.647 1.597.2.513.507 1.12.723 1.12l.03-.002z"/><path fill="url(#m)" d="M8.012 8.3.036 8.279c.024.394 1.334.837 2.582 1.446 1.015.495 2 1.172 2.448 1.679a8 8 0 0 1 .85 1.14c.236.385.475.867.696 1.349.216.47.441 1.068.647 1.597.2.513.507 1.12.723 1.12l.03-.002z"/><path fill="url(#n)" d="M8.012 8.3.036 8.279c.024.394 1.334.837 2.582 1.446 1.015.495 2 1.172 2.448 1.679a8 8 0 0 1 .85 1.14c.236.385.475.867.696 1.349.216.47.441 1.068.647 1.597.2.513.507 1.12.723 1.12l.03-.002z"/><path fill="url(#o)" d="M4.981 8.848a9.6 9.6 0 0 1 1.51 1.317c.79.849 1.438 1.98 1.523 2.136l-.03-4.01H4.13c.063.039.426.265.852.557"/><path fill="url(#p)" d="M11.058 7.66c-.442-.321-.958-.754-1.328-1.147a11 11 0 0 1-1.038-1.301c-.37-.544-.598-.977-.608-.996v4.01h3.838c-.091-.053-.444-.261-.865-.567"/><defs><radialGradient id="a" cx="0" cy="0" r="1" gradientTransform="matrix(5.869 6.81216 -4.37153 4.05245 9.036 -.504)" gradientUnits="userSpaceOnUse"><stop offset=".022" stop-color="#2752EE"/><stop offset=".125" stop-color="#3B66EF"/><stop offset=".457" stop-color="#77A3F4"/><stop offset=".7" stop-color="#9CC9F7"/><stop offset=".828" stop-color="#ABD8F9"/></radialGradient><radialGradient id="b" cx="0" cy="0" r="1" gradientTransform="matrix(5.98428 4.15053 -3.50631 5.43957 13.348 2.596)" gradientUnits="userSpaceOnUse"><stop offset=".51" stop-color="#A8D5FA" stop-opacity="0"/><stop offset=".543" stop-color="#A9D5F9" stop-opacity=".01"/><stop offset=".592" stop-color="#ACD6F9" stop-opacity=".014"/><stop offset=".653" stop-color="#B2D7F9" stop-opacity=".067"/><stop offset=".723" stop-color="#B9D9F9" stop-opacity=".207"/><stop offset=".8" stop-color="#C3DBF9" stop-opacity=".5"/><stop offset=".88" stop-color="#CFDEF9"/></radialGradient><radialGradient id="c" cx="0" cy="0" r="1" gradientTransform="matrix(-.70525 7.43131 -6.27788 -.64106 13.672 1.5)" gradientUnits="userSpaceOnUse"><stop offset=".501" stop-color="#A8D5FA" stop-opacity="0"/><stop offset=".566" stop-color="#A8D5F9" stop-opacity=".01"/><stop offset=".63" stop-color="#AAD5F9" stop-opacity=".01"/><stop offset=".693" stop-color="#ADD6F9" stop-opacity=".02"/><stop offset=".755" stop-color="#B1D7F9" stop-opacity=".064"/><stop offset=".818" stop-color="#B7D8F9" stop-opacity=".156"/><stop offset=".88" stop-color="#BEDAF9" stop-opacity=".324"/><stop offset=".941" stop-color="#C6DBF9" stop-opacity=".596"/><stop offset="1" stop-color="#CFDEF9"/></radialGradient><radialGradient id="d" cx="0" cy="0" r="1" gradientTransform="matrix(6.00935 4.16791 -2.50432 3.88511 14.71 4.944)" gradientUnits="userSpaceOnUse"><stop offset=".404" stop-color="#504AF4"/><stop offset=".407" stop-color="#504BF4" stop-opacity=".983"/><stop offset=".472" stop-color="#656BF5" stop-opacity=".581"/><stop offset=".54" stop-color="#7888F6" stop-opacity=".312"/><stop offset=".608" stop-color="#87A1F7" stop-opacity=".15"/><stop offset=".677" stop-color="#94B4F7" stop-opacity=".061"/><stop offset=".747" stop-color="#9EC4F8" stop-opacity=".019"/><stop offset=".818" stop-color="#A5CFF8" stop-opacity=".01"/><stop offset=".892" stop-color="#A9D5F8" stop-opacity=".01"/><stop offset=".971" stop-color="#ABD8F9" stop-opacity="0"/></radialGradient><radialGradient id="e" cx="0" cy="0" r="1" gradientTransform="matrix(4.14353 6.14445 -3.69193 2.67884 9.942 -.687)" gradientUnits="userSpaceOnUse"><stop offset=".251" stop-color="#504AF4"/><stop offset=".254" stop-color="#504BF4" stop-opacity=".983"/><stop offset=".337" stop-color="#656BF5" stop-opacity=".581"/><stop offset=".423" stop-color="#7888F6" stop-opacity=".312"/><stop offset=".51" stop-color="#87A1F7" stop-opacity=".15"/><stop offset=".598" stop-color="#94B4F7" stop-opacity=".061"/><stop offset=".686" stop-color="#9EC4F8" stop-opacity=".019"/><stop offset=".777" stop-color="#A5CFF8" stop-opacity=".01"/><stop offset=".87" stop-color="#A9D5F8" stop-opacity=".01"/><stop offset=".971" stop-color="#ABD8F9" stop-opacity="0"/></radialGradient><radialGradient id="f" cx="0" cy="0" r="1" gradientTransform="matrix(6.93035 .98383 -.62962 4.7722 11.793 7.248)" gradientUnits="userSpaceOnUse"><stop offset=".23" stop-color="#0D29F2"/><stop offset=".311" stop-color="#1030F1"/><stop offset=".433" stop-color="#1B44F1"/><stop offset=".58" stop-color="#2C66F0"/><stop offset=".746" stop-color="#4394EF"/><stop offset=".884" stop-color="#5AC1EE"/></radialGradient><radialGradient id="g" cx="0" cy="0" r="1" gradientTransform="matrix(2.12872 -10.2266 11.3637 2.54515 15.94 14.05)" gradientUnits="userSpaceOnUse"><stop offset=".335" stop-color="#ABD8F9" stop-opacity="0"/><stop offset=".392" stop-color="#A8D5F8" stop-opacity=".01"/><stop offset=".454" stop-color="#A0CCF6" stop-opacity=".01"/><stop offset=".517" stop-color="#94BDF4" stop-opacity=".03"/><stop offset=".581" stop-color="#82A9F0" stop-opacity=".095"/><stop offset=".646" stop-color="#6B8FEB" stop-opacity=".232"/><stop offset=".712" stop-color="#4F6FE6" stop-opacity=".482"/><stop offset=".778" stop-color="#2E4ADF" stop-opacity=".885"/><stop offset=".792" stop-color="#2742DE"/></radialGradient><radialGradient id="h" cx="0" cy="0" r="1" gradientTransform="matrix(2.67285 -7.28796 8.09834 3.19573 13.016 7.68)" gradientUnits="userSpaceOnUse"><stop offset=".233" stop-color="#2742DE"/><stop offset=".313" stop-color="#334FE0" stop-opacity=".824"/><stop offset=".476" stop-color="#5273E6" stop-opacity=".449"/><stop offset=".707" stop-color="#84ACF1" stop-opacity=".085"/><stop offset=".873" stop-color="#ABD8F9" stop-opacity="0"/></radialGradient><radialGradient id="i" cx="0" cy="0" r="1" gradientTransform="matrix(6.82803 8.66822 -7.51566 6.36997 9.34 2.562)" gradientUnits="userSpaceOnUse"><stop offset=".24" stop-color="#262FEA"/><stop offset=".288" stop-color="#3446EA"/><stop offset=".396" stop-color="#5275EC"/><stop offset=".491" stop-color="#6898ED"/><stop offset=".569" stop-color="#75ADED"/><stop offset=".621" stop-color="#7AB5EE"/></radialGradient><radialGradient id="j" cx="0" cy="0" r="1" gradientTransform="matrix(7.29264 1.1258 -.69051 4.81279 4.278 3.838)" gradientUnits="userSpaceOnUse"><stop offset=".156" stop-color="#7AB5EE" stop-opacity="0"/><stop offset=".277" stop-color="#79B4ED" stop-opacity=".01"/><stop offset=".389" stop-color="#78B3ED" stop-opacity=".01"/><stop offset=".496" stop-color="#77B0ED" stop-opacity=".02"/><stop offset=".601" stop-color="#74ADED" stop-opacity=".063"/><stop offset=".704" stop-color="#72A9ED" stop-opacity=".156"/><stop offset=".806" stop-color="#6EA3ED" stop-opacity=".324"/><stop offset=".905" stop-color="#6A9DED" stop-opacity=".597"/><stop offset="1" stop-color="#6697ED"/></radialGradient><radialGradient id="k" cx="0" cy="0" r="1" gradientTransform="matrix(-2.83067 7.06182 -4.33137 -1.8681 8.606 2.616)" gradientUnits="userSpaceOnUse"><stop offset=".233" stop-color="#2742DE"/><stop offset=".313" stop-color="#334FE0" stop-opacity=".824"/><stop offset=".476" stop-color="#5273E6" stop-opacity=".449"/><stop offset=".707" stop-color="#84ACF1" stop-opacity=".085"/><stop offset=".873" stop-color="#ABD8F9" stop-opacity="0"/></radialGradient><radialGradient id="l" cx="0" cy="0" r="1" gradientTransform="matrix(-3.33577 4.24449 -6.94125 -5.86967 7.588 9.215)" gradientUnits="userSpaceOnUse"><stop offset=".236" stop-color="#262FEA"/><stop offset=".269" stop-color="#3141EA"/><stop offset=".353" stop-color="#4B6AEB"/><stop offset=".435" stop-color="#5F8AEC"/><stop offset=".513" stop-color="#6EA2ED"/><stop offset=".587" stop-color="#76B0ED"/><stop offset=".65" stop-color="#7AB5EE"/></radialGradient><radialGradient id="m" cx="0" cy="0" r="1" gradientTransform="matrix(-3.33577 4.24449 -6.94125 -5.86967 4.118 15.836)" gradientUnits="userSpaceOnUse"><stop offset=".404" stop-color="#504AF4"/><stop offset=".407" stop-color="#504BF4" stop-opacity=".983"/><stop offset=".472" stop-color="#656BF5" stop-opacity=".581"/><stop offset=".54" stop-color="#7888F6" stop-opacity=".312"/><stop offset=".608" stop-color="#87A1F7" stop-opacity=".15"/><stop offset=".677" stop-color="#94B4F7" stop-opacity=".061"/><stop offset=".747" stop-color="#9EC4F8" stop-opacity=".019"/><stop offset=".818" stop-color="#A5CFF8" stop-opacity=".01"/><stop offset=".892" stop-color="#A9D5F8" stop-opacity=".01"/><stop offset=".971" stop-color="#ABD8F9" stop-opacity="0"/></radialGradient><radialGradient id="n" cx="0" cy="0" r="1" gradientTransform="matrix(-2.46925 5.38796 -8.81123 -4.34493 .396 11.95)" gradientUnits="userSpaceOnUse"><stop offset=".344" stop-color="#504AF4"/><stop offset=".393" stop-color="#5D5EF4" stop-opacity=".733"/><stop offset=".478" stop-color="#717EF5" stop-opacity=".399"/><stop offset=".565" stop-color="#8399F6" stop-opacity=".192"/><stop offset=".65" stop-color="#91B0F7" stop-opacity=".079"/><stop offset=".734" stop-color="#9CC1F8" stop-opacity=".025"/><stop offset=".816" stop-color="#A4CEF8" stop-opacity=".01"/><stop offset=".896" stop-color="#A9D5F8" stop-opacity=".01"/><stop offset=".971" stop-color="#ABD8F9" stop-opacity="0"/></radialGradient><radialGradient id="o" cx="0" cy="0" r="1" gradientTransform="matrix(-3.13402 3.06966 -3.75264 -4.12242 8.101 8.62)" gradientUnits="userSpaceOnUse"><stop offset=".185" stop-color="#2742E2"/><stop offset=".412" stop-color="#3964EB"/><stop offset=".725" stop-color="#559AFA"/></radialGradient><radialGradient id="p" cx="0" cy="0" r="1" gradientTransform="matrix(2.62194 3.17777 -2.63082 2.33559 9.035 5.161)" gradientUnits="userSpaceOnUse"><stop offset=".131" stop-color="#8D5DF7"/><stop offset=".34" stop-color="#6C4CF0"/><stop offset=".722" stop-color="#272BE2"/></radialGradient></defs></svg>